<svg xmlns="http://www.w3.org/2000/svg"><symbol id="sprite-pathdata" viewBox="0 0 150 150"><title>pathdata</title><path d="M50 75a100 3 0 10-50 45z"/></symbol><symbol id="sprite-account" viewBox="0 0 150 150"><title>account</title><path d="M12.5 140s7.63-32.955 17.218-45.086c0 0 8.608-7.043 12.912-7.63 4.304-.587 31.109-1.174 31.109-1.174l8.022-9.82h3.717l1.174-15.811-3.522-3.717-1.565-9.782.587-4.5h1.761s1.139-12.718.978-14.088c-.16-1.37 4.911-16.186 17.628-18.177 12.718-1.992 35.034 10.509 35.034 10.509l-1.205 21.559L134 48.935l1.37.392s-.196 3.717-1.761 6.26c0 0-2.153 10.76-7.63 10.956l-4.305 12.522-3.717 4.11-2.935 8.607 14.673 17.805 1.174 10.37s8.528 7.605 6.318 20.042H12.5z"/></symbol><symbol id="sprite-arrow-down" viewBox="0 0 150 150"><title>arrow-down</title><path fill="#0F9925" d="M75 120l45-50H30z"/></symbol><symbol fill="currentColor" id="sprite-arrow-left" viewBox="0 0 150 150"><title>arrow-left</title><path d="M50 75l50-45v90z"/></symbol><symbol id="sprite-arrow-right" viewBox="0 0 150 150"><title>arrow-right</title><path fill="red" d="M100 75L50 30v90z"/></symbol><symbol fill="#00f" id="sprite-arrow-up" viewBox="0 0 150 150"><title>arrow-up</title><path fill="inherit" d="M75 70l45 50H30z"/></symbol><symbol fill="#F9CE42" id="sprite-basket" viewBox="0 0 150 150"><title>basket</title><path fill="inherit" d="M10 31.205l1.714 12.002H36.83l11.851 68.85h82.837L140 49.914H47.839l-3.068-18.709H10zm47.013 88.642c-5.56 0-10.076 4.517-10.076 10.077S51.452 140 57.013 140c5.557 0 10.076-4.516 10.076-10.076 0-5.56-4.52-10.077-10.076-10.077zm64.459 0c-5.56 0-10.077 4.517-10.077 10.077 0 5.559 4.517 10.076 10.077 10.076 5.559 0 10.046-4.517 10.046-10.076 0-5.56-4.487-10.077-10.046-10.077z"/></symbol><symbol fill="purple" id="sprite-close" viewBox="0 0 150 150"><title>close</title><path d="M111.781 10L74.989 46.792l-36.77-36.77L10 38.243l36.77 36.77L10 111.78 38.219 140l36.77-36.77 36.77 36.77 28.218-28.219-36.77-36.77L140 38.22 111.781 10z"/></symbol><symbol id="sprite-minus" viewBox="0 0 150 150"><title>minus</title><path d="M10 95h130V60H10z"/></symbol><symbol id="sprite-plus" viewBox="0 0 150 150"><title>plus</title><path fill="#F0F" d="M10 93.025h46.993V140h36.043V93.025H140v-36.05H93.036V10H56.993v46.975H10v36.05z"/></symbol><symbol id="sprite-search" viewBox="0 0 150 150"><title>search</title><path fill="currentColor" d="M79.415 10C51.476 10 28.83 33.213 28.83 61.852c0 14.588 5.89 27.753 15.349 37.175L20 128.763 34.652 140l25.989-30.009a49.333 49.333 0 0018.774 3.712c27.94 0 50.585-23.213 50.585-51.851C130 33.213 107.354 10 79.415 10zm0 12.963c20.954 0 37.939 17.41 37.939 38.889 0 21.478-16.985 38.888-37.939 38.888S41.477 83.33 41.477 61.852c0-21.48 16.984-38.89 37.938-38.89z"/></symbol><symbol id="sprite-sound--off" viewBox="0 0 512 512"><title>sound--off</title><path fill-rule="evenodd" clip-rule="evenodd" d="M9 102.973l494 285.208v22.846L9 125.819v-22.846zm392.422 187.044l18.061 10.419c2.624-14.124 4.478-28.539 4.478-43.436 0-40.042-9.746-77.728-26.648-111.17l-16.229 11.945C395.749 187.8 404.2 221.396 404.2 257c0 11.249-1.138 22.21-2.778 33.017zM175.046 159.358L325 49.058v196.924l20 11.403V10L156.447 148.591l18.599 10.767zM483.24 257c0 25.607-4.632 50.056-12.544 72.999l17.426 10.074C497.538 314.099 503 286.255 503 257c0-73.869-32.592-139.98-84-185.23l-16.306 11.982C451.883 125.473 483.24 187.609 483.24 257zm-56.79 149.358c-7.39 8.471-15.168 16.594-23.755 23.89L419 442.23c8.973-7.912 17.116-16.691 24.874-25.818l-17.424-10.054zM325 347.868v117.074L141.567 329.919l-5.15-3.919H28V188h19.981l-34.234-20H9v178h120.933L345 504V359.274l-20-11.406z"/></symbol><symbol id="sprite-sound--on" viewBox="0 0 512 512"><title>sound--on</title><path d="M324 52v413.021l-182.882-134.93-4.96-4.092H28V189h108.158l5.22-4.092L324.26 51.119M345 11L129.688 168H9v179h120.688L345 504V11zm73.17 61.645l-16.273 11.958C450.986 126.24 482.28 188.249 482.28 257.5s-31.294 131.262-80.383 172.897l16.273 11.958C469.474 397.196 502 331.219 502 257.5s-32.526-139.696-83.83-184.855zM403.4 257.5c0 35.531-8.434 69.059-23.07 99.024l16.196 11.921c16.868-33.374 26.594-70.984 26.594-110.945s-9.726-77.571-26.594-110.945l-16.196 11.921c14.636 29.965 23.07 63.493 23.07 99.024z"/></symbol><symbol id="sprite-basket" viewBox="0 0 150 150"><title>basket</title><path fill="#ff0" d="M10 31.205l1.714 12.002H36.83l11.851 68.85h82.837L140 49.914H47.839l-3.068-18.709H10z"/><path d="M57.013 119.847c-5.56 0-10.076 4.517-10.076 10.077S51.452 140 57.013 140c5.557 0 10.076-4.516 10.076-10.076 0-5.56-4.52-10.077-10.076-10.077zm64.459 0c-5.56 0-10.077 4.517-10.077 10.077 0 5.559 4.517 10.076 10.077 10.076 5.559 0 10.046-4.517 10.046-10.076 0-5.56-4.487-10.077-10.046-10.077z"/></symbol><symbol id="sprite-kikoolol" viewBox="0 0 150 150"><title>kikoolol</title><path d="M75 75l45 50H30zm0 0l45-50H30z"/></symbol><symbol id="sprite-arrow-down" viewBox="0 0 150 150"><title>arrow-down</title><path d="M75 120l45-50H30z"/></symbol><symbol id="sprite-uea01-arrow-left" viewBox="0 0 150 150"><title>uea01-arrow-left</title><path d="M50 75l50-45v90z"/></symbol><symbol id="sprite-uea01arrow-up" viewBox="0 0 150 150"><title>uea01arrow-up</title><path d="M75 70l45 50H30z"/></symbol><symbol id="sprite-uea03-arrow-right" viewBox="0 0 150 150"><title>uea03-arrow-right</title><path d="M100 75L50 30v90z"/></symbol><symbol id="sprite-rounded" viewBox="0 0 500 500"><title>icon-call-window-front</title><rect x="116.61" y=".44" width="383.39" height="381.63" rx="22.49"/><path d="M23.31 103.79A23.31 23.31 0 000 127.1v349.12a23.34 23.34 0 0023.34 23.34h413.6a23.31 23.31 0 0023.31-23.31v-26.18H61.69a12.23 12.23 0 01-12.23-12.23v-334z"/></symbol><symbol id="sprite-rounded" viewBox="0 0 500 500"><title>icon-call-window-front</title><rect x="116.61" y=".44" width="383.39" height="381.63" ry="22.49"/><path d="M23.31 103.79A23.31 23.31 0 000 127.1v349.12a23.34 23.34 0 0023.34 23.34h413.6a23.31 23.31 0 0023.31-23.31v-26.18H61.69a12.23 12.23 0 01-12.23-12.23v-334z"/></symbol><symbol id="sprite-mute" viewBox="0 0 439 1024"><title>mute</title><path fill="currentColor" d="M439 634.384v97.005h-97.005L219.5 608.894 97.005 731.39H0v-97.005L122.495 511.89 0 389.394V292.39h97.005L219.5 414.884l122.495-122.495H439v97.005L316.505 511.89z"/></symbol><symbol id="sprite-sound" viewBox="0 0 439 1024"><title>sound</title><path fill="inherit" d="M55.603 772.267c-14.231 0-28.458-5.428-39.317-16.285-21.715-21.714-21.715-56.917 0-78.632 93.944-93.944 93.944-246.8 0-340.74-21.715-21.716-21.715-56.92 0-78.633 21.715-21.713 56.918-21.713 78.632 0 137.302 137.301 137.302 360.706 0 498.008-10.856 10.854-25.085 16.282-39.315 16.282zM253.117 877.11c-14.232 0-28.46-5.428-39.318-16.285-21.712-21.712-21.712-56.917 0-78.632 151.754-151.753 151.754-398.676 0-550.429-21.712-21.714-21.712-56.92 0-78.632 21.713-21.71 56.92-21.713 78.633 0C386.948 247.646 439 373.31 439 506.977c0 133.664-52.052 259.331-146.568 353.847-10.856 10.859-25.086 16.287-39.315 16.287z"/></symbol><symbol fill="#0F0" id="sprite-speaker" viewBox="0 0 511.906 1024"><title>speaker</title><path fill="inherit" d="M458.58 16.855c29.33-29.329 53.326-19.388 53.326 22.09v946.111c0 41.478-23.996 51.417-53.325 22.088L182.823 731.389H0V292.613h182.823L458.581 16.855z"/></symbol><symbol id="sprite-chip" viewBox="0 0 560 560"><title>cpu</title><g fill="#979797" fill-rule="evenodd"><path d="M80.086 57.587v354.486c0-12.16-9.857-22.004-21.996-22.004h354.868c-12.14 0-21.996 9.846-21.996 22.004V57.587c0 12.16 9.857 22.004 21.996 22.004H58.09c12.14 0 21.996-9.846 21.996-22.004zm-30 0c0-4.416 3.581-7.996 8.004-7.996h354.868c4.42 0 8.004 3.578 8.004 7.996v354.486c0 4.416-3.581 7.996-8.004 7.996H58.09c-4.42 0-8.004-3.578-8.004-7.996V57.587z" transform="translate(47.719 40.662)"/><path d="M123 10v48.591h20V0h-20v10zm-62 0v48.591h20V0H61v10zM0 10v48.591h20V0H0v10zm185 0v48.591h20V0h-20v10zm62 0v48.591h20V0h-20v10z" transform="translate(151.891 41.662)"/><path d="M123 10.718V59.31h20V.718h-20v10zm-62 0V59.31h20V.718H61v10zm-61 0V59.31h20V.718H0v10zm185 0V59.31h20V.718h-20v10zm62 0V59.31h20V.718h-20v10z" transform="rotate(-90 227.657 179.183)"/><path d="M123 10.718V59.31h20V.718h-20v10zm-62 0V59.31h20V.718H61v10zm-61 0V59.31h20V.718H0v10zm185 0V59.31h20V.718h-20v10zm62 0V59.31h20V.718h-20v10z" transform="rotate(-180 207.297 255.021)"/><path d="M123 .718V49.31h20V-9.282h-20v10zm-62 0V49.31h20V-9.282H61v10zm-61 0V49.31h20V-9.282H0v10zm177 0V49.31h20V-9.282h-20v10zm62 0V49.31h20V-9.282h-20v10z" transform="rotate(90 181.934 326.082)"/></g></symbol><symbol id="sprite-account" viewBox="0 0 150 150"><title>account</title><path d="M12.5 140s7.63-32.955 17.218-45.086c0 0 8.608-7.043 12.912-7.63 4.304-.587 31.109-1.174 31.109-1.174l8.022-9.82h3.717l1.174-15.811-3.522-3.717-1.565-9.782.587-4.5h1.761s1.139-12.718.978-14.088c-.16-1.37 4.911-16.186 17.628-18.177 12.718-1.992 35.034 10.509 35.034 10.509l-1.205 21.559L134 48.935l1.37.392s-.196 3.717-1.761 6.26c0 0-2.153 10.76-7.63 10.956l-4.305 12.522-3.717 4.11-2.935 8.607 14.673 17.805 1.174 10.37s8.528 7.605 6.318 20.042H12.5z"/><path fill="none" d="M100 100L0 200l-100-100L0 0z"/></symbol><symbol fill="green" id="sprite-ue008-arrow-down" viewBox="0 0 150 150"><title>ue008-arrow-down</title><path d="M75 120l45-50H30z"/></symbol><symbol fill="currentColor" id="sprite-ue00f-arrow-left" viewBox="0 0 150 150"><title>ue00f-arrow-left</title><path d="M50 75l50-45v90z"/></symbol><symbol fill="#0F0F0F" id="sprite-ue013-arrow-right" viewBox="0 0 150 150"><title>ue013-arrow-right</title><path d="M100 75L50 30v90z"/></symbol><symbol id="sprite-ue014-arrow-up" viewBox="0 0 150 150"><title>ue014-arrow-up</title><path fill="#F4F4F4" d="M75 70l45 50H30z"/></symbol><symbol id="sprite-diegoliv" viewBox="165.2 57 468.5 484.9"><title>diegoliv</title><path d="M399.6 57c35.3 0 50.2 22.9 73.9 30.6 23.8 7.7 40-5 68.6 15.7 28.5 20.7 27.2 48.1 41.8 68.2 14.7 20.2 35.3 19.5 46.2 53.1 10.9 33.5-6.3 54.8-6.3 79.8s17.1 36.6 6.2 70.1c-10.9 33.5-37.3 40.7-52 60.9-14.7 20.2-7.6 39.6-36.2 60.4-28.5 20.7-54.1 11-77.8 18.7-23.8 7.7-29.5 27.6-64.7 27.6s-50.2-22.9-73.9-30.6c-23.7-7.7-40 5-68.6-15.7-28.5-20.7-27.2-48.1-41.8-68.2-14.7-20.2-35.3-19.5-46.2-53.1-10.9-33.5 6.3-54.8 6.3-79.8s-17.1-36.6-6.2-70.1c10.9-33.5 37.3-40.7 52-60.9 14.7-20.2 7.6-39.6 36.2-60.4 28.5-20.7 54.1-11 77.8-18.7 23.7-7.7 29.5-27.6 64.7-27.6z"/></symbol><symbol id="sprite-hannesjohansson" viewBox="0 0 32 32"><title>hannesjohansson</title><path d="M2.25 12.751c0 5.514 4.486 10 10 10a9.933 9.933 0 005.683-1.782l7.549 7.549c.488.488 1.128.732 1.768.732s1.28-.244 1.768-.732a2.498 2.498 0 000-3.535l-7.811-7.811a9.922 9.922 0 001.044-4.421c0-5.514-4.486-10-10-10s-10 4.485-10.001 10zm4.001 0c0-3.309 2.691-6 6-6s6 2.691 6 6-2.691 6-6 6-6-2.691-6-6z"/></symbol><symbol id="sprite-roelvanhitum" viewBox="0 0 1000 1000"><title>roelvanhitum</title><path d="M743.5 359h-44.3L500 585.5 300.8 359h-44.3L500 641l243.5-282z"/></symbol><symbol id="sprite-safety-icon" viewBox="0 0 24 24"><title>safety-icon</title><path d="M22.847 4.873C22.571 4.06 20.746.006 11.999.006 3.253.006 1.43 4.061 1.152 4.873l-.144.427v.451c0 11.002 9.096 17.016 9.483 17.267l1.508.977 1.509-.977c.387-.251 9.484-6.265 9.484-17.267V5.3l-.145-.427zM12.009 22S3.011 15.643 3.011 6c0 0 1.791-4 8.998-4 7.208 0 8.998 4 8.998 4 0 9.643-8.998 16-8.998 16zm-1.083-11.177L9.011 8.922 7.058 10.86l3.868 3.84 6.955-6.905-1.953-1.939-5.002 4.967z"/></symbol><symbol id="sprite-sb-icon" viewBox="0 0 14 14.034"><title>sb-icon</title><switch><g><path fill="#b3b3b3" d="M10.397 8.041H7.992v2.405H6.134V8.041H3.729V6.183h2.406V3.777h1.858v2.406h2.405v1.858zm3.102-1.024a6.5 6.5 0 11-13 0 6.5 6.5 0 0113 0m-1.262 0a5.236 5.236 0 00-5.238-5.238 5.235 5.235 0 00-5.238 5.238 5.235 5.235 0 005.238 5.238 5.235 5.235 0 005.238-5.238"/></g></switch></symbol><symbol id="sprite-settings-icon" viewBox="0 0 24 24"><title>settings-icon</title><path d="M18.41 10.85l-.912-.004a5.656 5.656 0 00-.737-1.996l.628-.634a1.1 1.1 0 00-1.557-1.554l-.55.555a5.663 5.663 0 00-2.115-.983l-.008-.636a1.1 1.1 0 10-2.2.004l.008.56a5.674 5.674 0 00-2.181.839l-.455-.447a1.1 1.1 0 00-1.553 1.555l.425.42a5.685 5.685 0 00-.937 2.294l-.673-.008a1.1 1.1 0 00-.004 2.2l.729.009c.177.8.523 1.533.998 2.168l-.516.525a1.098 1.098 0 101.558 1.552l.59-.6a5.66 5.66 0 002.02.74l.009.991a1.1 1.1 0 102.199-.003l-.009-1.059a5.695 5.695 0 001.898-.82l.715.705a1.1 1.1 0 101.554-1.558l-.715-.704a5.65 5.65 0 00.821-1.916l.971.005a1.1 1.1 0 10-.001-2.2zm-6.529 3.754a2.822 2.822 0 01-2.818-2.818c0-.753.293-1.46.826-1.993a2.796 2.796 0 011.992-.826c1.554.002 2.818 1.266 2.818 2.819s-1.264 2.818-2.818 2.818z"/></symbol><symbol id="sprite-track-icon" viewBox="0 0 20 20"><title>track-icon</title><switch><g><path fill="#4d6dcf" d="M10 5.969c2.831 0 5.661 1.412 7.358 4.234v.563c-1.697 2.82-4.527 4.232-7.358 4.232-2.83 0-5.659-1.412-7.357-4.232v-.563C4.34 7.381 7.169 5.969 10 5.969m0-1.985c-3.8 0-7.25 1.964-9.228 5.252L.5 9.688v1.595l.271.45C2.75 15.021 6.199 16.984 10 16.984s7.25-1.964 9.23-5.252l.271-.45V9.688l-.271-.451C17.25 5.948 13.8 3.984 10 3.984zm3.811 6.499c0 2.059-1.703 3.729-3.807 3.729-2.103 0-3.808-1.67-3.808-3.729S7.9 6.755 10.003 6.755c2.104 0 3.808 1.67 3.808 3.728z"/></g></switch></symbol><symbol id="sprite-web-icon" viewBox="0 0 20 20"><title>web-icon</title><switch><g><path fill="#4d6dcf" d="M16.908 3.479l-.035-.035c-.259-.241-1.121-1.044-1.405-1.253-.302-.224-1.38-.751-1.829-.965l-.047-.021A9.43 9.43 0 0010.001.5C4.761.5.5 4.761.5 10.001c0 5.238 4.261 9.499 9.501 9.499 5.239 0 9.499-4.261 9.499-9.499 0-2.435-.92-4.751-2.592-6.522zm-3.479-.033l.017.016c-.016-.012-.023-.022-.041-.035l.024.019zM2.162 10.001c0-.448.046-.884.118-1.312.049.433.269.846.804 1.377.511.506.92 1.127 1.22 1.781.291.634-.611 1.042-.289 1.783.532 1.221 2.049 1.626 2.576 2.845.143.33.347.614.579.862a7.88 7.88 0 01-5.008-7.336zm7.022 7.833a.7.7 0 01.743-.229c-.003-1.164 1.591-1.571 1.67-2.934.035-.545-2.923-.777-3.187-.959.37-1.042-.867-.675-1.117-1.489-.371-.371-.78-.565-1.265-.753-1.173-.139-1.544-.548-2.546-1.152.065-.188-.056-.554.011-.801-.647-.057-.579-.366-.586-1.014a1.03 1.03 0 00.448-.63c.485.017.73.315 1.13.091.276 1.004.51-1.261.383 1.31a79.5 79.5 0 00.424-.357c-.148-.414-.234-.232.101-.835.01-.036 3.031-1.181 3.803-1.392-.356-.093-.383-.229-.081-.407a7.063 7.063 0 00-.764.136c.697-.573 1.418-.2 2.159-.826-.422.027-.691-.101-.376-.68-.128-.063-.887-.521-.996-.541-.013.333-1.437 1.302-1.522 1.045-.389-.458-.367-.688.145-.947.551-.32 1.405-.46 1.778-.795-.026-.255-.163-.271-.411-.047l-.058-.624c-.28.469-2.174.849-2.458.518.106-.022 1.167-.155.621-.331-.273-.256.059.002-.582-.228.031-.046.036-.067.054-.101a7.75 7.75 0 013.296-.74c.054 0 .107.006.161.008a2.673 2.673 0 00-.586.488c.607.037.68.853.493 1.222.045.256-.005.689.456.671 1.971-.077 1.138-1.507.95-2.249.411.079.814.198 1.21.344.282.42.431.865.82 1.182.104-.052.118-.123.056-.211l.035.035.039.041.038.041c.289-.126.023-.42-.244-.757.223.111.437.22.614.313.253.233.453.526.46.934-.437-.132-.225.231-.661-.252-.027.176.125.524.127.789-.154-.056-.436-.124-.545-.274l-.03-.044-.031-.045-.031-.043-.033-.045-.031-.043-.031-.044c-.062.147.109.653.404.967.074.133.451.585.521.692a1.825 1.825 0 01-.772.108c.125.238.248.476.371.714l-.061.058.013.034.012.033.013.034.011.032.011.032.012.031.011.03c.143-.007.7-.219.921-.315-.515-1.205.564-1.313 1.16-.547-.226-.436-.409-.492-.68-.711.208-.258 1.116.667 1.122.67.028-.194-.159-.711-.318-1.116.03.037.063.072.094.11.038.264.271.681.457.83-.094-.145-.117-.252-.087-.331.21.305.4.62.564.949-.29.344-.452.07-.617.603-1.233-.158-.54-.431-2.07-.011.059.031.075.079.05.141l-.025.005-.026.007-.026.006-.026.008-.029.006-.031.008-.03.007a11.73 11.73 0 01-1.272 2.352c.062.497 1.165 3.462 1.861 2.362.968-.226 2.004-.974 1.942.458-.04.923-.338 1.834-.768 2.678a7.8 7.8 0 01-6.765 2.717z"/></g></switch></symbol><symbol id="sprite-basket" viewBox="0 0 150 150"><title>basket</title><path d="M10 31.205l1.714 12.002H36.83l11.851 68.85h82.837L140 49.914H47.839l-3.068-18.709H10zm47.013 88.642c-5.56 0-10.076 4.517-10.076 10.077S51.452 140 57.013 140c5.557 0 10.076-4.516 10.076-10.076 0-5.56-4.52-10.077-10.076-10.077zm64.459 0c-5.56 0-10.077 4.517-10.077 10.077 0 5.559 4.517 10.076 10.077 10.076 5.559 0 10.046-4.517 10.046-10.076 0-5.56-4.487-10.077-10.046-10.077z"/><path d="M0 0h150v150H0z"/></symbol><symbol id="sprite-close" viewBox="0 0 150 150"><title>close</title><path d="M111.781 10L74.989 46.792l-36.77-36.77L10 38.243l36.77 36.77L10 111.78 38.219 140l36.77-36.77 36.77 36.77 28.218-28.219-36.77-36.77L140 38.22 111.781 10z"/><path d="M79.415 10C51.476 10 28.83 33.213 28.83 61.852c0 14.588 5.89 27.753 15.349 37.175L20 128.763 34.652 140l25.989-30.009a49.333 49.333 0 0018.774 3.712c27.94 0 50.585-23.213 50.585-51.851C130 33.213 107.354 10 79.415 10zm0 12.963c20.954 0 37.939 17.41 37.939 38.889 0 21.478-16.985 38.888-37.939 38.888S41.477 83.33 41.477 61.852c0-21.48 16.984-38.89 37.938-38.89z"/></symbol><symbol id="sprite-minus" viewBox="0 0 150 0"><title>minus</title><path d="M10 95h130V60H10z"/></symbol><symbol id="sprite-plus" viewBox="0 0 0 150"><title>plus</title><path d="M10 93.025h46.993V140h36.043V93.025H140v-36.05H93.036V10H56.993v46.975H10v36.05z"/></symbol><symbol id="sprite-search" viewBox="0 0 150 150"><title>search</title><path d="M79.415 10C51.476 10 28.83 33.213 28.83 61.852c0 14.588 5.89 27.753 15.349 37.175L20 128.763 34.652 140l25.989-30.009a49.333 49.333 0 0018.774 3.712c27.94 0 50.585-23.213 50.585-51.851C130 33.213 107.354 10 79.415 10zm0 12.963c20.954 0 37.939 17.41 37.939 38.889 0 21.478-16.985 38.888-37.939 38.888S41.477 83.33 41.477 61.852c0-21.48 16.984-38.89 37.938-38.89z"/><path d="M111.781 10L74.989 46.792l-36.77-36.77L10 38.243l36.77 36.77L10 111.78 38.219 140l36.77-36.77 36.77 36.77 28.218-28.219-36.77-36.77L140 38.22 111.781 10z"/></symbol><symbol id="sprite-rotatedrectangle" viewBox="0 0 1000 1000"><title>rotatedrectangle</title><path d="M174.176 120.235H753v44.706H174.176zM253.601 801.9l345.384-464.448 35.872 26.676-345.384 464.448z"/></symbol><symbol id="sprite-roundedrect" viewBox="0 0 150 150"><title>roundedrect</title><rect xmlns="http://www.w3.org/2000/svg" width="400" height="400" fill="red" x="50" y="50" rx="100" ry="200"/></symbol><symbol id="sprite-ic_search_black_48px" viewBox="0 0 24 24"><title>ic_search_black_48px</title><path d="M15.5 14h-.79l-.28-.27A6.471 6.471 0 0016 9.5 6.5 6.5 0 109.5 16c1.61 0 3.09-.59 4.23-1.57l.27.28v.79l5 4.99L20.49 19l-4.99-5zm-6 0C7.01 14 5 11.99 5 9.5S7.01 5 9.5 5 14 7.01 14 9.5 11.99 14 9.5 14z"/><path d="M0 0h24v24H0z" fill="none"/></symbol><symbol id="sprite-circle" viewBox="0 0 150 150"><title>circle</title><circle fill="red" cx="75" cy="50" r="20"/><circle cx="75" cy="100" r="20"/></symbol><symbol fill="#8F8F8F" id="sprite-ellipse" viewBox="0 0 150 150"><title>ellipse</title><ellipse cx="75" cy="50" rx="20" ry="30"/><ellipse fill="#1F1F1F" cx="75" cy="100" rx="30" ry="20"/></symbol><symbol id="sprite-lines" viewBox="0 0 150 150"><title>lines</title><path fill="#8F8F8F" d="M10 30l130 60"/></symbol><symbol id="sprite-polygon" viewBox="0 0 150 150"><title>polygon</title><path d="M10 30v60h130V30z"/></symbol><symbol id="sprite-polyline" viewBox="0 0 150 150"><title>polyline</title><path d="M10 30v60h130V30H10"/></symbol><symbol id="sprite-rect" viewBox="0 0 150 150"><title>rect</title><path d="M10 90h130v30H10z"/></symbol><symbol id="sprite-account" viewBox="0 0 150 150"><title>account</title><path d="M12.5 140s7.63-32.955 17.218-45.086c0 0 8.608-7.043 12.912-7.63 4.304-.587 31.109-1.174 31.109-1.174l8.022-9.82h3.717l1.174-15.811-3.522-3.717-1.565-9.782.587-4.5h1.761s1.139-12.718.978-14.088c-.16-1.37 4.911-16.186 17.628-18.177 12.718-1.992 35.034 10.509 35.034 10.509l-1.205 21.559L134 48.935l1.37.392s-.196 3.717-1.761 6.26c0 0-2.153 10.76-7.63 10.956l-4.305 12.522-3.717 4.11-2.935 8.607 14.673 17.805 1.174 10.37s8.528 7.605 6.318 20.042H12.5z"/></symbol><symbol id="sprite-bottomleft" viewBox="0 0 100 100"><title>bottomleft</title><path d="M20 80V60h20v20z"/></symbol><symbol id="sprite-center" viewBox="0 0 100 100"><title>center</title><path d="M40 60V40h20v20z"/></symbol><symbol id="sprite-topright" viewBox="0 0 100 100"><title>topright</title><path d="M60 20v20h20V20z"/></symbol><symbol id="sprite-arrow-down" viewBox="0 0 150 150"><title>arrow-down</title><path d="M85 110l45-50H40z"/></symbol><symbol id="sprite-arrow-left" viewBox="0 0 150 150"><title>arrow-left</title><path d="M50 75l50-45v90z"/></symbol><symbol id="sprite-arrow-right" viewBox="0 0 150 150"><title>arrow-right</title><path d="M100 75L50 30v90z"/></symbol><symbol id="sprite-arrow-up" viewBox="0 0 150 150"><title>arrow-up</title><path d="M65 80l45 50H20z" transform="translate(10 -10)"/></symbol><symbol id="sprite-translatex" viewBox="0 0 327.66 500"><title>translatex</title><path d="M307.45 500a20.22 20.22 0 01-15.54-7.28L163.83 339 35.75 492.72A20.22 20.22 0 010 479.78V20.22A20.22 20.22 0 0120.22 0h287.22a20.22 20.22 0 0120.22 20.22v459.56A20.22 20.22 0 01307.45 500z"/></symbol><symbol id="sprite-arrow-down" viewBox="0 0 150 100"><title>arrow-down</title><path d="M75 70l45-50H30z"/></symbol><symbol id="sprite-arrow-left" viewBox="0 0 150 150"><title>arrow-left</title><path d="M50 75l50-45v90z"/></symbol><symbol id="sprite-arrow-right" viewBox="0 0 150 150"><title>arrow-right</title><path d="M100 75L50 30v90z"/></symbol><symbol id="sprite-arrow-up" viewBox="0 0 150 100"><title>arrow-up</title><path d="M75 20l45 50H30z"/></symbol><symbol id="sprite-arrow-left" viewBox="0 0 50 150"><title>arrow-left</title><path d="M0 75l50-45v90z"/></symbol><symbol id="sprite-arrow-right" viewBox="0 0 150 150"><title>arrow-right</title><path d="M100 75L50 30v90z"/></symbol><symbol fill="none" id="sprite-down" viewBox="0 0 16 11"><title>down</title><path d="M1.88.44L8 6.56 14.12.44 16 2.333l-8 8-8-8L1.88.44z" fill="#A0A7AD"/></symbol><symbol fill="none" id="sprite-logo" viewBox="0 0 115 28"><title>logo</title><path d="M7.992 22.24c-1.552 0-2.872-.224-3.96-.672-1.088-.448-1.912-1.04-2.472-1.776s-.856-1.536-.888-2.4c0-.144.048-.264.144-.36a.573.573 0 01.384-.144h3.192a.92.92 0 01.456.096c.128.064.264.176.408.336.208.384.528.704.96.96.448.24 1.04.36 1.776.36.864 0 1.528-.128 1.992-.384.464-.272.696-.64.696-1.104 0-.336-.12-.608-.36-.816-.24-.224-.624-.416-1.152-.576-.528-.176-1.288-.368-2.28-.576-1.936-.384-3.384-.968-4.344-1.752-.96-.784-1.44-1.904-1.44-3.36 0-.992.272-1.872.816-2.64.56-.784 1.344-1.392 2.352-1.824 1.024-.432 2.208-.648 3.552-.648 1.408 0 2.624.248 3.648.744 1.04.48 1.832 1.088 2.376 1.824.56.72.856 1.432.888 2.136a.573.573 0 01-.144.384.488.488 0 01-.36.144h-3.36a.924.924 0 01-.816-.432c-.096-.336-.344-.616-.744-.84-.4-.24-.896-.36-1.488-.36-.672 0-1.192.12-1.56.36-.368.24-.552.592-.552 1.056 0 .464.24.832.72 1.104.48.256 1.376.52 2.688.792 1.504.272 2.696.616 3.576 1.032.896.4 1.552.928 1.968 1.584.432.64.648 1.456.648 2.448 0 1.088-.312 2.032-.936 2.832-.624.8-1.488 1.416-2.592 1.848-1.104.416-2.368.624-3.792.624zm9.984-.24a.67.67 0 01-.456-.168.585.585 0 01-.168-.432V5.56c0-.176.056-.32.168-.432a.67.67 0 01.456-.168h2.928c.176 0 .32.056.432.168a.585.585 0 01.168.432v8.016l3.192-3.648.168-.168a.899.899 0 01.288-.168.801.801 0 01.36-.072h3.384c.144 0 .264.056.36.168a.48.48 0 01.168.384.529.529 0 01-.168.384l-4.224 4.656 4.824 5.976c.112.144.168.264.168.36 0 .16-.056.296-.168.408a.519.519 0 01-.384.144h-3.48c-.208 0-.368-.032-.48-.096a2.562 2.562 0 01-.36-.312l-3.648-4.512v4.32c0 .16-.056.304-.168.432a.585.585 0 01-.432.168h-2.928zM32.132 7.792a.585.585 0 01-.432-.168.67.67 0 01-.168-.456V4.936c0-.176.056-.32.168-.432a.597.597 0 01.432-.192h3c.176 0 .32.064.432.192a.548.548 0 01.192.432v2.232a.623.623 0 01-.192.456.585.585 0 01-.432.168h-3zm0 14.208a.639.639 0 01-.432-.168.639.639 0 01-.168-.432V10.12c0-.176.056-.32.168-.432a.639.639 0 01.432-.168h3c.176 0 .32.056.432.168a.548.548 0 01.192.432V21.4c0 .176-.064.32-.192.432a.585.585 0 01-.432.168h-3zm6.985 0a.67.67 0 01-.456-.168.585.585 0 01-.168-.432V5.56c0-.176.056-.32.168-.432a.67.67 0 01.456-.168h3c.176 0 .32.056.432.168a.585.585 0 01.168.432V21.4c0 .16-.056.304-.168.432a.585.585 0 01-.432.168h-3zm6.96 0a.67.67 0 01-.455-.168.585.585 0 01-.168-.432V5.56c0-.176.056-.32.168-.432a.67.67 0 01.456-.168h3c.176 0 .32.056.432.168a.585.585 0 01.168.432V21.4c0 .16-.056.304-.168.432a.585.585 0 01-.432.168h-3zm7.202 0a.639.639 0 01-.432-.168.639.639 0 01-.168-.432V5.824c0-.176.056-.32.168-.432a.548.548 0 01.432-.192h6.312c2.368 0 4.208.568 5.52 1.704 1.312 1.12 2 2.736 2.064 4.848.016.464.024 1.08.024 1.848s-.008 1.376-.024 1.824C67.015 19.808 64.527 22 59.71 22h-6.432zm6.312-3.6c1.008 0 1.752-.24 2.232-.72.48-.48.736-1.248.768-2.304a27.2 27.2 0 00.048-1.8c0-.736-.016-1.328-.048-1.776-.032-1.024-.312-1.776-.84-2.256-.512-.496-1.272-.744-2.28-.744h-2.28v9.6h2.4zM70.265 22a.639.639 0 01-.432-.168.639.639 0 01-.168-.432V10.144c0-.176.056-.32.168-.432a.548.548 0 01.432-.192h2.928c.176 0 .32.064.432.192a.548.548 0 01.192.432v.912a4.482 4.482 0 011.56-1.128 4.881 4.881 0 012.016-.408h1.08c.176 0 .32.056.432.168a.585.585 0 01.168.432v2.616c0 .16-.056.304-.168.432a.585.585 0 01-.432.168h-2.424c-.64 0-1.136.176-1.488.528-.336.352-.504.848-.504 1.488V21.4c0 .176-.064.32-.192.432a.585.585 0 01-.432.168h-3.168zM81.327 7.792a.585.585 0 01-.432-.168.67.67 0 01-.168-.456V4.936c0-.176.056-.32.168-.432a.597.597 0 01.432-.192h3c.176 0 .32.064.432.192a.548.548 0 01.192.432v2.232a.623.623 0 01-.192.456.585.585 0 01-.432.168h-3zm0 14.208a.639.639 0 01-.432-.168.639.639 0 01-.168-.432V10.12c0-.176.056-.32.168-.432a.639.639 0 01.432-.168h3c.176 0 .32.056.432.168a.548.548 0 01.192.432V21.4c0 .176-.064.32-.192.432a.585.585 0 01-.432.168h-3zm10.825 0c-.224 0-.4-.048-.528-.144a1.396 1.396 0 01-.288-.456l-4.56-11.136a.624.624 0 01-.024-.192c0-.16.048-.288.144-.384a.555.555 0 01.408-.168h2.856c.336 0 .576.168.72.504l2.616 7.176 2.64-7.176a.817.817 0 01.24-.336.616.616 0 01.456-.168h2.88c.144 0 .272.056.384.168a.48.48 0 01.168.384l-.048.192L95.68 21.4c-.08.192-.184.344-.312.456-.128.096-.304.144-.528.144h-2.688zm15.291.24c-1.952 0-3.488-.52-4.608-1.56-1.12-1.056-1.696-2.584-1.728-4.584v-.744c.064-1.904.656-3.392 1.776-4.464 1.12-1.072 2.632-1.608 4.536-1.608 1.376 0 2.536.28 3.48.84a5.073 5.073 0 012.136 2.28c.48.96.72 2.056.72 3.288v.6a.623.623 0 01-.192.456.585.585 0 01-.432.168h-7.608v.144c.016.72.184 1.304.504 1.752.32.432.776.648 1.368.648.384 0 .688-.072.912-.216.24-.16.464-.36.672-.6.144-.16.256-.256.336-.288.096-.048.24-.072.432-.072h3.144c.144 0 .264.048.36.144.112.08.168.184.168.312 0 .416-.24.904-.72 1.464-.464.56-1.152 1.04-2.064 1.44-.896.4-1.96.6-3.192.6zm1.896-7.776v-.048c0-.768-.168-1.36-.504-1.776-.336-.432-.808-.648-1.416-.648-.608 0-1.08.216-1.416.648-.32.416-.48 1.008-.48 1.776v.048h3.816z" fill="#1B1B1B"/><path fill="#1B1B1B" d="M42 9h4v3h-4zm0 7h4v3h-4z"/></symbol><symbol fill="none" id="sprite-question" viewBox="0 0 360 301"><title>question</title><g clip-path="url(#clip0)"><path opacity=".1" d="M255.857 300.061c20.312 0 36.778-1.623 36.778-3.626 0-2.002-16.466-3.625-36.778-3.625-20.312 0-36.777 1.623-36.777 3.625 0 2.003 16.465 3.626 36.777 3.626zM157.613 4.39c16.198-6.022 35.917-.843 52.756 6.708 52.889 23.725 91.42 68.76 122.033 114.643 11.085 16.614 21.613 33.959 25.78 52.505 8.484 37.75-13.645 76.829-51.279 90.524-12.798 4.662-26.859 6.573-40.941 7.638-25.041 1.897-50.967 1.144-75.807-5.881-17.714-5.02-34.471-13.096-50.544-22.018-44.885-24.929-85.876-57.303-115.392-96.849C11.274 134.315.323 114.761.007 94.748c-.315-20.013 12.727-40.123 34.185-43.526 8.871-1.406 18.256.057 27.41 1.563 13.48 2.22 27.143 4.554 40.468 3.586 13.767-1.008 31.671-6.387 34.181-19.529 2.658-14.11 5.186-26.44 21.362-32.453z" fill="#61A199"/><path d="M87.504 275.691s17.306-1.044 15.265 11.084c0 0 .406 2.151-1.538 3.116 0 0-.029-.9-1.775-.595a7.832 7.832 0 01-1.879.093 3.92 3.92 0 01-2.299-.95s-4.866-2.008-6.756-9.962c0 0-1.402-1.732-1.344-2.18l2.919 1.248s-.997 2.108-.212 3.858c0 0 .093-3.779.656-3.693.112.018 1.517.717 1.517.717s-1.718 3.668-.423 6.336c0 0-.491-4.522.957-6.071l2.059 1.201s-2.008 3.791-.646 6.882c0 0-.358-4.744 1.076-6.591l1.865 1.434s-1.886 3.737-.735 6.304c0 0 .147-5.526 1.136-5.942 0 0 1.632 1.435 1.88 2.03 0 0-1.291 2.711-.492 4.142 0 0 .492-3.679.897-3.697 0 0 1.621 2.438 1.793 4.109 0 0-.072-2.485-1.402-4.342 0 0 1.57.269 2.488 1.287 0 0-.254-1.725-2.886-1.875 0 0-1.342-1.847-1.704-1.962 0 0 2.622-.219 4.21.488 0 0-1.398-1.628-4.69-.89l-1.84-1.499s3.453-.473 4.913.051c0 0-1.682-1.435-5.408-.391l-2-1.198s2.94-.635 4.693-.405c0 0-1.85-.997-5.282.082l-1.434-.641s2.151-.424 2.786-.492c.635-.068.663-.24.663-.24a7.46 7.46 0 00-4.048.448s-3.034-1.086-2.98-1.294z" fill="#61A199"/><path opacity=".1" d="M99.424 293.018c6.765 0 12.249-.926 12.249-2.069 0-1.143-5.484-2.069-12.25-2.069-6.764 0-12.249.926-12.249 2.069 0 1.143 5.485 2.069 12.25 2.069z" fill="#61A199"/><path d="M64.32 267.533s9.758-.588 8.607 6.25a1.662 1.662 0 01-.864 1.757s-.018-.506-1-.333c-.35.059-.705.076-1.058.05a2.18 2.18 0 01-1.298-.534s-2.74-1.137-3.816-5.62c0 0-.789-.979-.76-1.23l1.65.718s-.564 1.19-.123 2.176c0 0 .054-2.133.36-2.083.064 0 .856.412.856.412s-.968 2.069-.236 3.586c0 0-.28-2.549.537-3.424l1.159.677s-1.13 2.152-.359 3.88c0 0-.197-2.675.606-3.715l1.05.818s-1.075 2.105-.412 3.554c0 0 .083-3.117.642-3.35 0 0 .918.811 1.058 1.144 0 0-.717 1.528-.276 2.335 0 0 .276-2.073.506-2.084 0 0 .914 1.374 1.007 2.317a5.02 5.02 0 00-.789-2.449 2.727 2.727 0 011.402.717s-.14-.972-1.628-1.058c0 0-.756-1.044-.957-1.105 0 0 1.477-.125 2.374.273 0 0-.79-.918-2.647-.502l-1.036-.846s1.947-.266 2.772.028c0 0-.95-.81-3.052-.218l-1.126-.678c.868-.19 1.756-.266 2.643-.226 0 0-1.04-.563-2.976.047l-.807-.359s1.216-.24 1.57-.276c.356-.036.377-.136.377-.136a4.226 4.226 0 00-2.284.254s-1.7-.649-1.671-.767z" fill="#61A199"/><path opacity=".1" d="M71.041 277.301c3.814 0 6.907-.524 6.907-1.169 0-.646-3.093-1.169-6.907-1.169s-6.906.523-6.906 1.169c0 .645 3.092 1.169 6.906 1.169z" fill="#61A199"/><path d="M304.368 274.106s11.78-.717 10.399 7.53a2.026 2.026 0 01-1.047 2.123s-.022-.613-1.208-.405a5.336 5.336 0 01-1.281.061 2.637 2.637 0 01-1.563-.645s-3.314-1.367-4.601-6.782c0 0-.954-1.179-.914-1.481l1.986.847s-.678 1.434-.143 2.628c0 0 .064-2.575.444-2.51.079 0 1.033.495 1.033.495s-1.169 2.51-.287 4.303c0 0-.333-3.077.653-4.131l1.399.814s-1.367 2.582-.438 4.687c0 0-.24-3.227.717-4.486l1.27.99s-1.284 2.542-.502 4.303c0 0 .104-3.758.778-4.045 0 0 1.108.979 1.276 1.38 0 0-.878 1.847-.333 2.823 0 0 .333-2.511.609-2.511 0 0 1.105 1.661 1.22 2.797a6.024 6.024 0 00-.951-2.954 3.32 3.32 0 011.693.875s-.172-1.173-1.969-1.277c0 0-.911-1.259-1.154-1.334 0 0 1.793-.151 2.868.33 0 0-.953-1.105-3.195-.603l-1.251-1.022s2.349-.322 3.346.033c0 0-1.148-.979-3.683-.266l-1.363-.814s2.001-.43 3.195-.276c0 0-1.259-.678-3.586.058l-.975-.438s1.466-.29 1.897-.333c.43-.044.452-.165.452-.165a5.092 5.092 0 00-2.754.304s-2.073-.767-2.037-.903z" fill="#61A199"/><path opacity=".1" d="M312.479 285.903c4.605 0 8.338-.631 8.338-1.409s-3.733-1.409-8.338-1.409c-4.604 0-8.337.631-8.337 1.409s3.733 1.409 8.337 1.409z" fill="#61A199"/><path d="M292.631 187.05a25.538 25.538 0 01-.391-3.823c0-1.538-2.091-2.901-2.091-2.901s-1.291-2.987-2.151-3.428c-.861-.441-3.518-4.35-3.518-4.35a3.55 3.55 0 00-.8-2.108 30.275 30.275 0 01-2.176-3.285c-.359-.437-.18-.746-.718-3.295a3.913 3.913 0 00-.1-.384c0-.057-.036-.108-.057-.165a4.303 4.303 0 001.014-4.457 1.783 1.783 0 00-.509-.789c-.606-.495-1.574-.291-2.198-.76l.663-2.934c.158-.717.241-1.624-.387-2.011a3.246 3.246 0 00-.739-.248c-1.075-.358-1.699-1.495-1.979-2.589a8.859 8.859 0 01-.215-3.227c.122-1.04.427-2.051.538-3.095a8.5 8.5 0 00-1.316-5.501 4.24 4.24 0 00-1.739-1.642c-.664-.298-1.435-.359-2.055-.717-1.334-.85-1.266-2.869-2.331-4.027-1.065-1.159-2.951-1.155-4.504-.757-1.553.398-3.098 1.076-4.69.907-1.026-.115-1.987-.581-3.016-.688a3.178 3.178 0 00-.882.039v-.032c-.761.136-1.46.559-1.639 1.28-.04.172-.057.348-.05.524 0 .419.1.857.107 1.258a1.186 1.186 0 01-.29.886c-.205.219-.506.334-.717.559a.896.896 0 00-.262.66c0 .639.796 1.202 1.33 1.46h.022a9.447 9.447 0 00-2.794 6.72 9.571 9.571 0 005.824 8.742l-.075.233c-.151.461-.327.914-.528 1.356a2.685 2.685 0 00-2.252.251c-1.025.717-3.03.66-3.564.527-.534-.133-6.096-.835-6.544-.66-.449.176-1.334-.613-1.912.441-.577 1.055-.846 1.625-1.434 1.89-.588.265-1.603 1.097-1.467 1.273.137.176-1.47 1.23-1.47 1.23s-1.38 1.434-2.18 1.625c-.8.19-2.492 1.276-2.492 1.276l-1.962 1.535s-1.466.222-1.022-.789c.445-1.011-.803-2.284-.803-2.284s-2.492-5.053-2.492-6.096c0-1.044-2.048-5.494-2.048-5.494l-.251-.025-.115-.326c-.376-1.058-.864-2.356-1.237-3.117-.717-1.452-1.158-1.603-1.158-1.603s-8.635-6.483-14.243-4.507c-5.609 1.976 10.237 7.864 11.661 8.481.499.215.857.911 1.108 1.725a7.377 7.377 0 00-3.066 2.757s3.428 7.599 3.518 9.489c.09 1.889 2.36 7.171 2.36 7.171s.846 3.913 5.429 3.69c0 0 6.322 1.162 7.702 0 1.381-1.161 2.625-2.072 3.296-2.205a2.598 2.598 0 001.244-.879s-2.091 13.179-3.116 14.323c-1.026 1.144-10.087 15.939-6.835 18.586a65.104 65.104 0 008.144 5.379c.276.136 1.104-1.245 2.288-2.224v.764c.021 5.264.717 13.268 1.678 15.061 1.434 2.636.846 7.731.846 7.731a6.096 6.096 0 002.406.578c.043.172.093.358.14.538.785 2.965 2.058 7.552 2.707 8.771.979 1.847 1.689 7.692 1.689 7.692s.581 5.737.359 6.544c-.086.305.29 2.693.882 5.738-.358 4.12-1.04 12.063-1.155 14.935v.208a.785.785 0 010 .097v.176a2.72 2.72 0 00.022.541c.044.274.024.554-.061.818a14.237 14.237 0 01-.965 2.302 10.99 10.99 0 00-.43 1.111c-.359.158-.796.542-1.04 1.478-.445 1.714-1.111 6.455-1.111 6.455s-.269 2.901-.8 3.56c-.531.66-1.076 4.788 2.714 5.315 3.791.527 5.43-2.008 5.43-2.008l-.133-11.504v-.022a1.71 1.71 0 00.197-.312v-.028c.025-.054.054-.111.079-.176l.032-.086.058-.14a.21.21 0 010-.05 7.607 7.607 0 00.322-3.425V278.079c0-.076.008-.155.022-.236v-.044l.021-.139v-.061c0-.047 0-.094.029-.144a.216.216 0 010-.036 7.62 7.62 0 01.126-.516v-.039l.053-.173c.054-.182.115-.358.18-.552v-.036c0-.057.039-.114.061-.168v-.022c.064-.175.132-.358.197-.509l.018-.047.057-.143.018-.043.136-.319 1.051 3.245s.581 2.417.269 2.987c-.312.57.359 2.944.8 2.987l-.413 2.987a45.605 45.605 0 00-.398 4.967c-.028.19-.057.359-.079.473-.287 1.531.402 3.905.402 3.905 3.514 4.156 7.703.323 7.703.323s.487-2.198 0-2.636c-.488-.437-.269-2.022-.269-2.022s.222-3.912.265-6.767c.043-2.854-2.334-5.379-2.334-5.379l-.133.119c-.434-1.119-.929-2.424-.825-3.009.179-1.011-.491-11.686-.491-11.686a63.4 63.4 0 00.158-8.607c.057-.484.111-.961.165-1.434.268-2.295.487-4.257.573-5.286v-.122a6.07 6.07 0 00.029-.566c0-.359 0-.768.036-1.216.082-1.234.276-2.607.276-2.607l.932-5.669s.717-2.769 1.739-4.303l.122-.194c.04-.068.079-.144.122-.222l.018-.033c.04-.075.083-.154.122-.236l.018-.033c.144-.283.298-.609.459-.968 0-.029.025-.054.036-.082l.122-.273c0-.036.029-.072.046-.107.018-.036.076-.183.115-.273.018-.036.033-.073.047-.111.046-.108.097-.219.143-.334l.068-.165c.033-.082.069-.165.104-.247l.086-.219c.026-.054.047-.107.069-.161l.096-.248c0-.035.033-.075.047-.111.255-.634.499-1.262.717-1.832l.197-.516c2.281.139 3.83.265 3.83.265s.717-5.139.488-8.52c-.151-2.31.28-5.214.563-6.814.032-.175.061-.333.09-.477l.061.051c1.115.878 1.914-2.023 1.914-2.023s-.301-2.707-.717-5.988l-.043-.327c.643.137 1.293.237 1.947.298 0 0 .359-.032.85-.093a23.59 23.59 0 004.282 1.936l2.37-4.375c.446-.907.967-1.774 1.56-2.592.717-.879 3.249-3.69 3.206-4.217-.043-.528.846-3.561 1.735-4.924.89-1.363 1.245-4.102 1.202-4.321zm-9.883 3.338c-.936.395-1.825 2.593-1.868 3.253-.043.66-1.026 3.557-2.048 3.909-.943.322-2.743 1.979-3.03 2.244a13.29 13.29 0 00-.975.122c-.391-2.772-.779-5.067-1.026-5.529-.717-1.32.785-5.537.785-5.537s.147-4.26 1.076-5.271c.929-1.011.717-3.561.717-3.561s.223-1.054.312-1.535c.09-.48 1.323 0 1.334 0 0 0 2.403 1.316 2.761 3.292.359 1.976 2.984 5.404 2.984 5.404s-.402 1.187 0 1.793c.402.606-.086 1.022-1.022 1.416z" fill="url(#paint0_linear)"/><path d="M218.37 152.84a7.173 7.173 0 017.171-3.378v5.131h-3.116l-2.438-.616-1.617-1.137z" fill="#4C4981"/><path opacity=".1" d="M218.37 152.84a7.173 7.173 0 017.171-3.378v5.131h-3.116l-2.438-.616-1.617-1.137z" fill="#000"/><path d="M225.775 150.821l-3.819 2.675s-.033-.534-.129-1.266c-.19-1.384-.617-3.46-1.539-3.862-1.402-.616-17.012-6.49-11.475-8.466 5.537-1.976 14.032 4.5 14.032 4.5s.437.151 1.137 1.596c.358.76.85 2.055 1.219 3.113.341.953.574 1.71.574 1.71z" fill="#AE6E79"/><path d="M256.284 154.941l.434-.204 1.219 1.391-.997 2.127-1.7-.682.395-1.699.649-.933z" fill="#4C4981"/><path d="M250.507 279.485s-1.097-.129-1.535 1.581c-.437 1.711-1.097 6.455-1.097 6.455s-.262 2.894-.789 3.553c-.527.66-1.051 4.78 2.675 5.304s5.35-2.005 5.35-2.005l-.132-11.5-4.472-3.388zm13.003.516s2.345 2.51 2.302 5.357c-.043 2.847-.265 6.753-.265 6.753s-.216 1.581.265 2.019c.48.437 0 2.632 0 2.632s-4.124 3.826-7.588-.323c0 0-.674-2.37-.395-3.898.28-1.528 1.062-8.395 1.062-8.395l4.619-4.145z" fill="#444053"/><path d="M269.319 227.564s-2.367 6.62-3.378 8.154c-1.011 1.535-1.707 4.304-1.707 4.304l-.922 5.655a31.423 31.423 0 00-.308 3.815c.043 1.273-2.281 19.819-2.281 19.819l-3.682 4.694s-1.621 3.289-1.36 4.662c.262 1.374-.175 3.554-.717 4.21 0 0-.086 4.303-.218 5.261-.133.957.484 3.686 0 4.166-.485.481-6.929.266-7.104-.527-.176-.792.789-4.604.789-4.604l.57-3.683s1.14-2.015.878-2.675c-.261-.66.481-2.191.524-2.324.043-.132 1.23-2.28 1.011-3.112-.219-.832 1.381-18.525 1.381-18.525l4.514-31.703 12.01 2.413z" fill="#AE6E79"/><path opacity=".1" d="M269.319 227.564s-.359.997-.85 2.305c-.782 2.066-1.908 4.91-2.528 5.849-1.008 1.535-1.711 4.303-1.711 4.303l-.921 5.659a31.826 31.826 0 00-.305 3.815c0 .502-.337 3.705-.767 7.394-.664 5.641-1.514 12.426-1.514 12.426l-3.682 4.694s-.187.358-.42.925c-.463 1.076-1.115 2.822-.94 3.722.262 1.359-.175 3.55-.717 4.21 0 0-.089 4.303-.218 5.261-.13.957.484 3.682 0 4.166-.485.485-6.929.266-7.104-.523-.176-.789.789-4.604.789-4.604l.57-3.687s1.14-2.015.875-2.675c-.266-.66.484-2.191.527-2.324.043-.132 1.23-2.28 1.011-3.112-.168-.635.717-11.023 1.13-15.95.14-1.55.229-2.557.229-2.557l3.884-27.275.315-2.198.316-2.231 12.031 2.407z" fill="#000"/><path d="M265.374 293.513c.04.484-6.186 1.187-7.075.66-.889-.527 0-7.061 0-7.061l.405-2.98c-.434-.046-1.093-2.413-.789-2.983.305-.571-.261-2.98-.261-2.98l-1.033-3.228-.631-1.976c-1.026-2.262-2.51-8.717-3.432-13.536-.581-3.027-.95-5.412-.868-5.716.219-.789-.358-6.534-.358-6.534s-.718-5.834-1.664-7.674c-.642-1.219-1.894-5.798-2.668-8.753-.395-1.517-.667-2.607-.667-2.607s6.627-.556 10.647-.75c1.846-.089 3.144-.1 2.994.051-.151.15-.19.953-.183 2.115.018 3.009.437 8.302.882 9.725.613 1.973 1.226 7.889.965 8.463-.262.574-.176 4.386-.176 4.386.452 1.548.712 3.146.775 4.758a64.46 64.46 0 01-.151 8.567s.656 10.658.48 11.665c-.175 1.008 1.403 4.167 1.403 4.78 0 .613.437 4.78.437 4.78s.94 6.347.968 6.828zm3.461-128.09l-.754.814-.491.531-2.869 3.084-7.412.835-3.944-1.054-.976-.262s0-1.979.176-4.353c.251-3.045.85-6.742 2.281-7.749a5.697 5.697 0 001.667-2.113c.286-.57.526-1.162.717-1.771.029-.079.051-.154.076-.233a19.85 19.85 0 00.695-3.253s.947-.523 2.263-1.133c3.432-1.603 9.359-3.815 7.298 1.133a19.251 19.251 0 00-.775 2.224 6.443 6.443 0 00-.086.33c-.689 2.754-.233 4.425.28 5.346.086.16.186.312.297.456.14.192.308.362.499.505l.853 5.419.072.448.133.796z" fill="#AE6E79"/><path opacity=".1" d="M267.565 150.165c-.391.939.19-.768 0 0-1.563 1.111-5.246 4.278-7.315 4.278-1.399 0-1.818-.255-3.016-.796.362-1.135.62-2.3.771-3.482 0 0 12.411-6.842 9.56 0z" fill="#000"/><path d="M270.724 144.402a9.568 9.568 0 01-9.56 9.56 9.554 9.554 0 01-8.832-5.901 9.557 9.557 0 012.072-10.419 9.562 9.562 0 0114.709 1.449 9.562 9.562 0 011.611 5.311z" fill="#AE6E79"/><path opacity=".1" d="M272.083 186.781l-1.362 3.554s-1.108.046-2.837.1c-5.834.187-18.69.423-19.263-1.076a3.787 3.787 0 01-.201-1.18c-.075-2.284.99-5.791.99-5.791s.613-7.018.613-7.322c0-.305-.527-5.222-.527-5.222l1.054-3.944 2.937-2.062s1.316 2.019 2.105 2.191c.789.172 1.843 1.144 1.843 1.144s2.585 1.578 3.421.699c.835-.878 7.322-4.737 7.322-4.737l3.421 3.773.484 19.873z" fill="#000"/><path d="M272.084 187.326l-1.363 3.55s-1.108.05-2.836.104h-.169c-.746.025-1.599.05-2.51.068-4.637.108-11.024.137-14.362-.358-1.255-.18-2.076-.438-2.213-.789a3.188 3.188 0 01-.157-.653 6.104 6.104 0 01-.043-.527c-.076-2.284.989-5.791.989-5.791s.613-7.018.613-7.323c0-.305-.527-5.221-.527-5.221l1.055-3.945 2.019-1.412.918-.646c.308.462.645.905 1.007 1.327.283.38.662.678 1.098.864.792.176 1.843 1.144 1.843 1.144s2.585 1.578 3.421.699c.634-.67 4.579-3.084 6.401-4.184.559-.341.921-.553.921-.553l.459.51 2.962 3.263.474 19.873z" fill="#fff"/><path opacity=".1" d="M225.775 150.821l-3.819 2.675s-.033-.534-.13-1.266c1.887-.796 3.034-2.556 3.364-3.119.351.953.585 1.71.585 1.71z" fill="#000"/><path d="M239.193 159.901l-.832-.223s-1.362 1.435-2.151 1.625c-.789.19-2.453 1.269-2.453 1.269l-1.933 1.535s-1.434.222-1.007-.789c.426-1.011-.789-2.281-.789-2.281s-2.457-5.041-2.457-6.096c0-1.054-2.029-5.479-2.029-5.479s-2.546 4.956-7.194 3.378c0 0 3.378 7.584 3.464 9.47.086 1.887 2.324 7.147 2.324 7.147s.835 3.905 5.35 3.687c0 0 6.229 1.158 7.588 0 1.359-1.159 2.586-2.07 3.227-2.202.642-.133 1.227-.875 1.227-.875v-5.214l-2.335-4.952z" fill="#4C4981"/><path opacity=".1" d="M231.387 164.853s1.097 4.081.394 4.518l-.394-4.518zm36.497 26.109c-5.834.187-18.69.42-19.263-1.076a3.786 3.786 0 01-.201-1.179l19.059 1.004.405 1.251zm1.435 36.602s-.359.997-.85 2.306c-2.421-.147-5.626-.302-8.671-.323-1.076 0-2.13 0-3.127.036-2.116.064-3.944.236-5.11.566a13.525 13.525 0 01-4.554.588c-.394-1.516-.667-2.606-.667-2.606s6.627-.556 10.647-.75l.315-2.23 12.017 2.413z" fill="#000"/><path d="M274.45 211.513l-.746 1.578s-.104.47-.236 1.216c-.28 1.606-.718 4.503-.553 6.813.219 3.378-.484 8.506-.484 8.506s-16.137-1.359-20.87 0c-4.733 1.359-7.064 0-7.064 0s.574-5.085-.832-7.717c-.958-1.793-1.632-9.797-1.653-15.061 0-2.428.122-4.267.426-4.64.965-1.184 5.085-13.025 5.085-13.025l.94.051 2.51.132 14.272.753 2.241.119.237.717 6.727 20.558z" fill="#444053"/><path d="M281.554 206.249l.133 1.406s-7.069-2.303-6.71-5.132c.359-2.829 0-2.51 0-2.51l5.681.481.896 5.755z" fill="#4C4981"/><path opacity=".1" d="M281.554 206.249l.133 1.406s-7.069-2.303-6.71-5.132c.359-2.829 0-2.51 0-2.51l5.681.481.896 5.755zm-45.452-40.263a6.3 6.3 0 002.489 1.295 1.626 1.626 0 01-.718-.359c-.505-.359-.986-.75-1.473-1.13-.395-.308-.886-.821-1.37-.946.317.416.676.798 1.072 1.14zm.108 1.847c.227.256.411.548.545.864a5.23 5.23 0 01-.04 2.715l-1.133-2.733a16.96 16.96 0 00-.631-1.377c-.104-.19-.757-.982-.681-1.147.201-.467 1.728 1.416 1.94 1.678zm31.617 15.132a3.649 3.649 0 002.062-.964c-1.166.147-2.27.606-3.418.846a5.076 5.076 0 01-3.184-.294c1.32.645 3.134.667 4.54.412zm-3.296-8.028a.8.8 0 01-.591-.147 63.226 63.226 0 01-2.589-1.571c-.829-.534-1.829-1.076-2.536-1.75 1.74 1.571 3.36 2.897 5.716 3.468zm2.432 9.302c.459.02.92-.017 1.37-.112a1.835 1.835 0 001.126-.738.642.642 0 00-.477.075 8.049 8.049 0 01-4.404.527c.714.305 1.628.244 2.385.248zm-8.305 20.36c-.913.276-1.851.46-2.801.549-.739.034-1.479.02-2.216-.043l-3.586-.226-1.793-.115c-.211 0-1.076 0-.649-.426.215-.208 1.413-.076 1.721-.086.596-.019 1.193-.03 1.793-.033 1.187 0 2.378 0 3.565.072a67.64 67.64 0 013.966.308zm-4.157 1.776c-.609-.026-1.394.337-2.022.415-.702.083-1.409.111-2.116.083a11.803 11.803 0 01-4.077-.832c2.736.14 5.479.222 8.215.334zm-7.681 1.879c.266.053.527.125.782.215 1.513.43 3.124.05 4.662-.33-.384.577-1.076.825-1.768.982a8.194 8.194 0 01-3.443.126c-.358-.072-1.258-.201-1.434-.574-.294-.549.864-.473 1.201-.419zm8.485 2.829c.454.093.901.212 1.341.358 1.703.423 3.471-.157 5.182-.548a24.082 24.082 0 016.271-.581c-.376 0-.975.33-1.344.441-.484.147-.976.283-1.467.405a29.95 29.95 0 01-2.93.57c-1.99.288-4.005.376-6.013.262-.918-.05-2.51.043-3.296-.42a3.636 3.636 0 012.256-.487zm.642-54.083s.086 4.037-.57 5.881c-.208.573-.531 1.631-.883 2.818-.383 1.316-.803 2.79-1.126 3.945l-.537 1.929s-1.481 12.063-1.865 17.811c0 .101 0 .205-.022.301-.021.323-.057.66-.111 1.008-.853 5.709-5.777 14.512-7.43 15.215a4.934 4.934 0 00-1.391.958c0-2.428.122-4.268.426-4.641.965-1.183 5.085-13.024 5.085-13.024l.94.051a6.127 6.127 0 01-.043-.528c-.075-2.284.99-5.791.99-5.791s.613-7.018.613-7.322c0-.305-.527-5.221-.527-5.221l1.054-3.945 2.019-1.413c.251-3.044.85-6.741 2.28-7.749a5.694 5.694 0 001.668-2.112c.283.039-.233-.212-.233-.212l-.337 2.041z" fill="#000"/><path d="M256.718 154.737a2.621 2.621 0 00-2.22.251c-1.011.717-2.984.656-3.511.527-.527-.129-6.006-.835-6.454-.66-.449.176-1.317-.613-1.887.441-.57 1.055-.832 1.621-1.402 1.883s-1.581 1.097-1.434 1.273c.147.176-1.435 1.226-1.435 1.226l3.199 10.4s-2.062 13.153-3.069 14.293c-1.008 1.14-9.955 15.918-6.753 18.55a63.585 63.585 0 008.026 5.379c.358.176 1.62-2.191 3.374-2.937 1.753-.746 7.193-10.614 7.53-16.226.337-5.612 1.887-18.109 1.887-18.109s1.886-6.842 2.542-8.685c.656-1.844.57-5.881.57-5.881l1.037-1.725z" fill="#4C4981"/><path opacity=".1" d="M274.45 211.513l-.746 1.578s-.104.47-.236 1.216a.671.671 0 01-.359-.162c-1.097-.878-7.531-7.498-7.85-13.375a106.085 106.085 0 01-.046-9.736c.021-.524.043-.839.043-.907 0 0 4.999-6.054 4.428-8.198-.57-2.144-1.886-13.627-1.886-13.627l-.193-1.506-.334-2.546-.796-6.16.825.193c.14.193.308.363.498.506l.854 5.418 2.962 3.264.484 19.866-1.363 3.55s-1.108.05-2.836.104h-.169l6.72 20.522z" fill="#000"/><path d="M277.211 178.72s-1.226-.484-1.312 0c-.086.484-.308 1.531-.308 1.531s.218 2.546-.718 3.554c-.936 1.007-1.075 5.26-1.075 5.26s-1.478 4.21-.779 5.526c.255.477.649 2.869 1.044 5.738.251 1.793.498 3.761.717 5.561.398 3.271.696 5.978.696 5.978s-.793 2.894-1.89 2.015c-1.097-.878-7.53-7.498-7.846-13.375a106.058 106.058 0 01-.057-9.481c.028-.75.057-1.173.057-1.173s4.999-6.053 4.429-8.201c-.571-2.148-1.887-13.627-1.887-13.627l-.229-1.775-.247-1.907-.058-.42-.792-6.096c.14.032 5.059 1.144 5.708 1.793s4.662 1.578 4.662 1.578a3.507 3.507 0 012.489 2.553c.039.122.068.251.097.384.527 2.546.358 2.851.717 3.292.358.441-3.418 11.292-3.418 11.292z" fill="#4C4981"/><path opacity=".1" d="M274.809 205.887c-1.793-.359-4.454-1.187-4.393-3.016.054-1.71 2.112-2.327 3.672-2.546.251 1.786.498 3.762.721 5.562z" fill="#000"/><path d="M280.371 204.976c-.072.154-.359.287-.768.405-.959.228-1.933.388-2.915.477 0 0-6.096-.484-6.01-3.249.064-1.983 2.818-2.51 4.364-2.628a9.814 9.814 0 011.029-.043s4.561 4.471 4.3 5.038z" fill="#AE6E79"/><path opacity=".1" d="M280.37 204.976c-.071.154-.358.287-.767.405-1.588-2.126-3.805-4.855-4.891-5.095l.33-.305a9.814 9.814 0 011.029-.043s4.561 4.471 4.299 5.038z" fill="#000"/><path d="M278.836 167.134l1.793.265a31.265 31.265 0 002.151 3.288c.482.599.759 1.337.789 2.105 0 0 2.632 3.902 3.464 4.339.832.438 2.105 3.421 2.105 3.421s2.062 1.359 2.062 2.894a25.7 25.7 0 00.394 3.815c.047.219-.304 2.941-1.183 4.304-.879 1.362-1.757 4.367-1.71 4.905.046.538-2.457 3.335-3.156 4.21a17.8 17.8 0 00-1.535 2.589l-2.323 4.386s-4.913-7.237-6.71-7.631c0 0 2.016-1.929 3.023-2.281 1.008-.351 1.976-3.227 2.019-3.901.043-.675.922-2.851 1.84-3.228.918-.376 1.405-.789 1.011-1.405-.395-.617 0-1.793 0-1.793s-2.589-3.421-2.941-5.379c-.351-1.958-2.718-3.289-2.718-3.289l-1.359-3.335 2.984-8.279z" fill="#4C4981"/><path opacity=".1" d="M285.359 183.503a5.694 5.694 0 013.539-1.341c-.832.144-1.707.327-2.317.907a5.5 5.5 0 00-.641.818c-.208.298-1.901 2.449-2.152 2.109-.419-.499 1.23-2.202 1.571-2.493zm-3.974-2.076a1.51 1.51 0 001.252-.886 4.96 4.96 0 00.391-1.556c.128-.898.309-1.788.541-2.664a1.234 1.234 0 00-.075-1.076 3.618 3.618 0 00-.387-.796c-.323.358-.416 1.194-.549 1.674a52.361 52.361 0 00-.459 1.793c-.075.287-.671 3.511-.714 3.511zm-1.552-17.704a3.69 3.69 0 01-.606.624c-.717.57-1.668 1.051-1.757 1.951.025.292-.012.587-.108.864-.229.395-.792.359-1.241.283a2.145 2.145 0 01-1.05-.387c-.47-.401-.513-1.119-.872-1.624a2.22 2.22 0 00-1.793-.793c-.67-.021-1.337.129-2.008.158a5.497 5.497 0 01-1.287-.086 5.277 5.277 0 01-1.291-.384 3.774 3.774 0 01-.427-.201 5.66 5.66 0 01-1.237-.86c-.656-.603-1.201-1.435-1.147-2.327.032-.549.279-1.055.358-1.596.269-1.549-.76-3.012-1.875-4.12-.445-.442-.918-.868-1.363-1.317a6.556 6.556 0 01-1.603-2.287 6.819 6.819 0 01-.287-2.869c.101-.979.129-1.964.083-2.948-.33-3.485-3.307-6.157-6.283-7.609l-.133-.068a9.55 9.55 0 017.078-3.278 9.557 9.557 0 015.778 17.263 6.443 6.443 0 00-.086.33c-.689 2.754-.233 4.425.28 5.346.14.033 5.059 1.144 5.708 1.793.65.65 4.662 1.578 4.662 1.578a3.507 3.507 0 012.507 2.564z" fill="#000"/><path d="M253.275 135.599c.198-.226.495-.341.696-.559.62-.675 0-1.776.226-2.665.244-.986 1.456-1.416 2.467-1.312 1.011.104 1.958.57 2.969.685 1.571.175 3.091-.506 4.622-.904 1.532-.398 3.382-.42 4.436.753 1.054 1.173.983 3.17 2.295 4.02.606.391 1.37.434 2.026.717a4.164 4.164 0 011.714 1.639 8.583 8.583 0 011.298 5.49c-.111 1.04-.412 2.051-.534 3.091a8.993 8.993 0 00.215 3.227c.276 1.076.875 2.238 1.947 2.582.248.055.489.138.717.248.621.387.538 1.298.381 2.008l-.639 2.944c.613.466 1.567.265 2.152.756.234.214.407.486.502.789a4.309 4.309 0 01-1.287 4.712c-.718.57-1.668 1.051-1.758 1.947.028.293-.009.588-.107.865-.226.394-.793.358-1.241.283a2.164 2.164 0 01-1.047-.387c-.473-.402-.513-1.119-.871-1.625a2.22 2.22 0 00-1.793-.792c-.674-.022-1.338.129-2.012.161a5.944 5.944 0 01-4.228-1.528c-.66-.606-1.201-1.434-1.151-2.33.032-.546.28-1.055.359-1.596.265-1.546-.76-3.012-1.876-4.12-1.115-1.108-2.424-2.13-2.969-3.604-.681-1.826-.021-3.862-.204-5.799-.33-3.489-3.303-6.157-6.283-7.613-.663-.34-1.793-1.205-1.022-2.083z" fill="#444053"/><path opacity=".1" d="M276.727 165.713c-.473-.405-.513-1.118-.871-1.624a2.229 2.229 0 00-1.793-.796c-.674-.022-1.341.129-2.012.161a5.922 5.922 0 01-4.242-1.531c-.66-.602-1.198-1.434-1.148-2.327.033-.549.28-1.058.359-1.596.269-1.549-.76-3.016-1.875-4.124-1.116-1.108-2.421-2.13-2.97-3.604-.677-1.821 0-3.858-.2-5.798-.334-3.489-3.307-6.157-6.283-7.613-.696-.341-1.825-1.205-1.054-2.084.193-.225.491-.34.692-.559.62-.67 0-1.775.229-2.661.044-.176.121-.343.226-.491-.749.14-1.434.563-1.617 1.28-.219.89.394 1.99-.226 2.665-.201.218-.498.333-.696.555-.771.879.359 1.747 1.055 2.084 2.98 1.456 5.952 4.127 6.282 7.613.183 1.94-.477 3.977.205 5.802.545 1.47 1.854 2.51 2.969 3.604 1.115 1.093 2.151 2.571 1.875 4.12a13.58 13.58 0 00-.358 1.596c-.051.893.491 1.725 1.151 2.327a5.912 5.912 0 004.238 1.531c.674-.032 1.338-.179 2.012-.161a2.228 2.228 0 011.793.796c.359.506.398 1.223.871 1.624.31.218.671.35 1.047.384.449.083 1.015.111 1.241-.28a.97.97 0 00.101-.516 2.054 2.054 0 01-1.001-.377z" fill="#000"/><path d="M224.527 144.402h-24.804V119.96h24.822l-.018 24.442zm-.359-36.853h-24.087c0-37.982 36.104-35.762 36.104-59.792 0-13.235-10.834-23.839-24.069-23.839-13.236 0-24.066 11.432-24.066 24.216h-24.068A48.05 48.05 0 01212.116 0c26.586 0 48.134 21.21 48.134 47.758 0 30.046-36.1 33.467-36.1 59.791h.018z" fill="#61A199"/><path opacity=".1" d="M100.815 137.123h-6.397v-6.319h6.397v6.319zm-.097-9.503h-6.203c0-9.79 9.305-9.219 9.305-15.419a6.158 6.158 0 00-.48-2.362 6.158 6.158 0 00-3.357-3.329 6.171 6.171 0 00-2.366-.459 6.334 6.334 0 00-6.19 6.239h-6.203a12.41 12.41 0 0121.078-8.725 12.413 12.413 0 013.74 8.628c-.018 7.746-9.324 8.628-9.324 15.413v.014zm48.536 53.398h-6.397v-6.3h6.397v6.3zm-.093-9.499h-6.204c0-9.793 9.306-9.219 9.306-15.419a6.18 6.18 0 00-1.828-4.359 6.173 6.173 0 00-4.376-1.788 6.336 6.336 0 00-6.222 6.247h-6.203a12.41 12.41 0 0124.818-.097c.011 7.746-9.291 8.632-9.291 15.416zm29.548-68.208h-4.637v-4.558h4.637v4.558zm-.068-6.889h-4.497c0-7.093 6.745-6.68 6.745-11.17a4.469 4.469 0 00-2.782-4.121 4.475 4.475 0 00-1.714-.332 4.592 4.592 0 00-4.497 4.525h-4.497a8.991 8.991 0 018.958-9.03 8.995 8.995 0 019.029 8.958c-.007 5.612-6.745 6.254-6.745 11.17zm79.26 13.322h-2.621v-2.582h2.621v2.582zm-.039-3.891h-2.557c0-4.009 3.812-3.776 3.812-6.314a2.51 2.51 0 00-2.539-2.51 2.598 2.598 0 00-2.543 2.556h-2.542a5.085 5.085 0 0110.166-.04c.015 3.153-3.797 3.529-3.797 6.308zm40.116 121.32h-2.622v-2.582h2.622v2.582zm-.04-3.891h-2.542c0-4.013 3.815-3.776 3.815-6.315a2.528 2.528 0 00-2.542-2.51 2.595 2.595 0 00-2.543 2.557h-2.542a5.087 5.087 0 018.617-3.542 5.085 5.085 0 011.549 3.502c.014 3.167-3.797 3.529-3.797 6.308h-.015z" fill="#61A199"/></g><defs><linearGradient id="paint0_linear" x1="250.012" y1="298.368" x2="250.012" y2="130.277" gradientUnits="userSpaceOnUse"><stop stop-color="gray" stop-opacity=".25"/><stop offset=".54" stop-color="gray" stop-opacity=".12"/><stop offset="1" stop-color="gray" stop-opacity=".1"/></linearGradient><clipPath id="clip0"><path fill="#fff" d="M0 0h360v300.064H0z"/></clipPath></defs></symbol><symbol fill="none" id="sprite-top" viewBox="0 0 16 11"><title>top</title><path d="M1.88 10.56L8 4.44l6.12 6.12L16 8.667l-8-8-8 8 1.88 1.893z" fill="#61A199"/></symbol></svg>